<?xml version="1.0" encoding="UTF-8" standalone="no"?>
<!-- Generator: Adobe Illustrator 14.0.0, SVG Export Plug-In . SVG Version: 6.00 Build 43363)  -->

<svg
   xmlns:dc="http://purl.org/dc/elements/1.1/"
   xmlns:cc="http://creativecommons.org/ns#"
   xmlns:rdf="http://www.w3.org/1999/02/22-rdf-syntax-ns#"
   xmlns:svg="http://www.w3.org/2000/svg"
   xmlns="http://www.w3.org/2000/svg"
   xmlns:sodipodi="http://sodipodi.sourceforge.net/DTD/sodipodi-0.dtd"
   xmlns:inkscape="http://www.inkscape.org/namespaces/inkscape"
   version="1.1"
   id="图层_1"
   x="0px"
   y="0px"
   width="595.28px"
   height="283.46px"
   viewBox="0 0 595.28 283.46"
   enable-background="new 0 0 595.28 283.46"
   xml:space="preserve"
   inkscape:version="0.48.1 "
   sodipodi:docname="Administrative_Divisions_of_Shenzhen_City.svg"><metadata
   id="metadata19"><rdf:RDF><cc:Work
       rdf:about=""><dc:format>image/svg+xml</dc:format><dc:type
         rdf:resource="http://purl.org/dc/dcmitype/StillImage" /></cc:Work></rdf:RDF></metadata><defs
   id="defs17" /><sodipodi:namedview
   pagecolor="#ffffff"
   bordercolor="#666666"
   borderopacity="1"
   objecttolerance="10"
   gridtolerance="10"
   guidetolerance="10"
   inkscape:pageopacity="0"
   inkscape:pageshadow="2"
   inkscape:window-width="667"
   inkscape:window-height="690"
   id="namedview15"
   showgrid="false"
   inkscape:zoom="0.83256899"
   inkscape:cx="297.64001"
   inkscape:cy="141.73"
   inkscape:window-x="683"
   inkscape:window-y="0"
   inkscape:window-maximized="0"
   inkscape:current-layer="图层_1" />
<path
   fill="#ECADC4"
   stroke="#FFFFFF"
   stroke-width="0.5"
   d="M430.07,89.502L430.07,89.502L430.07,89.502  c-0.342,0.472-0.59,0.934-0.693,1.361c-0.424,1.771,0.355,3.399,2.121,5.313c1.771,1.913,6.295,5.456,7.992,6.521  c1.695,1.063,5.516,3.543,7.424,4.604c1.908,1.063,5.373,3.26,6.506,5.03c1.133,1.771,1.346,2.978-0.354,5.6  s-0.99,2.979-2.193,3.475c-1.201,0.496-2.475,1.771-3.465,2.194c-0.99,0.427-1.625,1.701-1.768,2.409  c-0.143,0.709-0.143,3.756,0.85,4.818c0.99,1.063,1.449,1.771,2.121,2.409l0.035,0.029c-0.506,0.479-1.057,0.884-1.492,1.102  c-0.848,0.425-3.533,0.99-4.805,1.979s-12.156,6.502-13.287,7.208c-1.129,0.707-6.928,3.108-7.633,3.958s-0.281,1.413-1.271,1.557  c-0.988,0.143-2.826,0.143-2.826,0.143s-0.99-0.85-1.979-1.556c-0.988-0.707-1.979-1.131-1.979-1.131s-1.271-0.427-2.121,0  c-0.848,0.424-1.27,2.261-0.986,2.968c0.279,0.707,0.375-0.063,0.729,0.36c0.354,0.427,0.564,0.604,0.707,0.992  c0.141,0.391,0.424,0.604,0.424,1.063s0,1.417-0.104,1.595c-0.107,0.178-0.496,0.247-0.707,0.495  c-0.213,0.248-0.852,0.814-1.168,0.852c-0.318,0.036-0.639,0.179-0.99,0.427s-1.309,0.813-1.768,0.922  c-0.459,0.105-0.529,0.104-0.529,0.744c0,0.638-0.105,3.116-0.178,3.543c-0.072,0.425-0.777,0.673-1.805,0.425  c-1.023-0.248-1.271-0.069-1.555-0.354c-0.283-0.283-0.566-0.495-0.744-0.708c-0.176-0.213-0.459-0.709-0.529-1.063  c-0.068-0.354-0.104-0.565-0.354-0.708c-0.248-0.145-1.025-0.426-1.379-0.426c-0.355,0-0.707-0.248-0.92-0.392  c-0.211-0.143-1.771-0.248-2.514-0.248c-0.738,0-1.627-0.104-1.873-0.316c-0.248-0.214-1.061-0.354-1.482-0.354  s-0.918,0.105-1.271,0.496c-0.354,0.39-0.072,1.559-1.205,1.699c-0.992,0.125-1.006,0.356-1.377,0.991  c-0.168-0.168-0.33-0.313-0.469-0.425c-0.707-0.563-0.564-0.707-1.838-0.707c-1.275,0-2.969,0-2.969,0s-0.707,0.989-1.838,1.414  c-1.135,0.426-1.412,0.85-2.264,0.85c-0.85,0-1.979-0.85-1.979-0.85l-1.98-1.131c0,0-0.848,0.706-1.838,0  c-0.988-0.707-2.119-1.694-2.119-1.694l-2.545-1.271c0,0-1.836,0.849-2.686,1.555c-0.848,0.707-2.543,3.534-2.543,3.534l-0.99,1.13  c0,0,0,1.035-0.74,1.125c-0.035,0.005-0.066,0.006-0.104,0.006c-0.852,0-1.271-0.424-2.266-1.271  c-0.984-0.849-1.555-1.271-1.555-1.271s-0.848,0-0.707-0.848c0.143-0.85,0.283-2.58,0.283-2.58s0.494-0.743,0.988-1.201  s0.461-3.393,0.461-3.393s-1.025-1.448-1.166-2.154c-0.145-0.707-0.99-0.99-0.99-1.838c0-0.849-0.564-0.849-0.564-0.849  s-0.707-0.707-1.555-0.707c-0.85,0-2.404,0-2.404,0l-0.141-1.557c-0.283-1.271-1.131-1.411-1.131-1.411s-0.707-1.414-1.838-1.414  s-1.836-0.989-1.836-0.989s-0.852-1.131-0.707-1.838c0.033-0.169-0.006-0.313-0.086-0.429c0.053-0.294,0.086-0.535,0.086-0.701  c0-0.851-0.145-1.696-0.145-1.696l-0.705-2.402l-0.707-0.706c0,0,0.988-1.694,0.988-2.401c0-0.351,0.105-1.523,0.209-2.711  l-0.035-0.03c0.322,0.27,0.533,0.479,0.533,0.479l1.555-1.979c0,0,1.838-1.131,2.545-1.412c0.707-0.283,1.695-1.132,3.533-0.85  c1.838,0.281,2.545,1.131,4.24,1.131s6.785-2.12,8.621-2.688c1.838-0.563,5.514-3.533,6.502-4.1c0.99-0.565,2.402-0.988,2.402-2.262  c0-1.271,0-2.12-0.705-3.108c-0.707-0.989,0.705-0.849,0.848-1.979s0.988-3.531,1.979-4.662c0.988-1.133,3.107-3.815,4.521-4.384  c1.414-0.563,4.24-2.119,4.947-2.262s1.693,0.707,1.979-0.143l0.098-0.339c0.158-0.822,0.018-1.891-0.23-2.632  c-0.281-0.848-1.693-4.099-0.988-5.513c0.707-1.413,1.98-2.4,1.98-2.4s0-2.264-0.988-3.394c-0.988-1.132-1.695-1.271-1.555-2.121  c0.141-0.849,0.563-1.131,0.707-1.837c0.141-0.707,0.848-2.263,0.848-2.263s-0.988-0.85-1.271-1.556  c-0.281-0.706-0.705-1.132-0.705-1.132l-0.145-0.144c0-0.556,0-1.199,0-1.979c0-1.131,1.84-1.837,2.688-1.979  s1.695-3.815,2.121-4.664c0.424-0.849,0.707-3.251,1.412-3.675c0.707-0.425,1.555-0.851,1.555-0.851s1.131-0.705,2.262-0.563  c0.172,0.029,0.371,0.046,0.582,0.056c-0.105,1.639-0.246,4.339,0.627,4.722c1.131,0.496,2.053,0.779,2.404,0.779  s0.281,0.144,0.918-0.214c0.637-0.354,0.496-2.338,2.334-3.26c1.838-0.921,1.061-1.417,2.617-1.274  c1.555,0.144,2.051,0.708,2.969,1.487c0.92,0.779,1.697,1.417,2.547,1.771c0.85,0.354,2.479,1.701,3.396,1.701  c0.92,0,5.441,0.495,6.082,0c0.637-0.496-0.07-2.195,0.424-3.399c0.496-1.205,0.496-4.184,0.773-5.176  c0.283-0.989,0.779-3.543,1.416-4.464c0.639-0.922,1.414-1.843,3.396-1.63c1.979,0.212,3.604,1.63,5.375,2.834  c1.768,1.205,4.523,2.835,5.729,4.322c1.201,1.488,1.412,1.843,1.412,2.339c0,0.495,0.145,14.243,0.145,14.243  s-1.273,1.488-2.121,2.622c-0.85,1.135-3.324,3.474-5.092,4.678c-1.34,0.912-3.33,2.479-4.398,3.952"
   id="path3"
   style="fill:#808080" />
<path
   id="_x31__1_"
   fill="#C59D62"
   stroke="#FFFFFF"
   stroke-width="0.5"
   d="M517.127,141.637l0.105,0.016L517.127,141.637  L517.127,141.637z M537.32,140.42c-0.012-0.084-0.053-0.24-0.107-0.516c-0.213-1.063-0.354-2.479,0-3.188  c0.355-0.709,1.908-0.921,1.697-1.274c-0.213-0.354,0.283-0.282,0.777,0.565c0.494,0.852,0.494,2.126,0.99,2.126  c0.494,0,0.281-1.063,1.201-1.063s3.748,0.391,4.563,0.886c0.816,0.496,2.086,0.956,2.793,1.417  c0.707,0.462,1.133,0.674,1.309,1.273c0.18,0.604,0.566,0.496,0.105,0.924c-0.459,0.425-0.6,0.604-1.131,0.921  c-0.529,0.316-0.529,0.143-1.025,0.639c-0.494,0.496-0.672,1.134-0.775,2.055c-0.104,0.922-0.459,1.666-0.742,2.339  c-0.281,0.675-0.852,1.101-1.311,1.523c-0.459,0.425-2.016,0.991-2.582,1.274c-0.564,0.282-1.131,0.852-1.131,1.982  s-0.85,5.74-0.637,7.087c0.211,1.348,0.494,2.125,0,2.691c-0.496,0.564-1.627,1.348-2.404,1.488  c-0.775,0.143-1.627,0.143-2.264,0.213c-0.637,0.068-1.607,0.776-1.818,1.025c-0.213,0.248-0.584,1.26-0.85,1.541  c-0.266,0.282-0.529,0.675-0.848,0.957c-0.32,0.282-0.48,0.479-0.777,0.654c-0.301,0.178-1.963,0.604-2.635,0.956  c-0.672,0.354-0.639,0.461-1.238,0.957s-1.625,1.348-2.191,1.878c-0.564,0.531-2.299,1.665-2.936,2.657s-1.627,1.347-2.051,1.771  c-0.426,0.426-0.426,0.853-1.273,1.204c-0.848,0.354-2.828,0.992-3.604,1.417c-0.779,0.427-1.842,1.562-2.404,2.409  c-0.566,0.851-0.283,0.922-1.273,0.922c-0.988,0-8.627-0.142-9.264-0.142c-0.635,0-0.635-0.213-1.555-0.496  c-0.92-0.284-0.99-0.709-2.191-0.853c-1.203-0.143-2.051-0.427-2.547,0c-0.494,0.427-2.191,2.834-2.758,3.757  c-0.564,0.922-1.484,2.903-1.201,3.757c0.283,0.85,0.777,1.98,0.777,2.903c0,0.921,0.637,5.456,0.068,5.738  c-0.564,0.284-8.557-0.354-8.838,0.146c-0.283,0.493,0.918,3.398,1.482,4.038c0.564,0.639,1.629,2.765,1.98,2.977  c0.313,0.188,2.268,2.187,3.742,3.628l0.236,0.231c0.115,0.112,0.229,0.222,0.334,0.324c1.484,1.417,2.053,3.117,2.689,3.613  s5.586,0.354,6.719,0.354s1.484,0.281,1.557-0.354c0.07-0.638,0.424-1.63,0.141-2.409c-0.281-0.776-0.848-0.776-0.775-1.7  c0.068-0.921,0-1.56,0.852-2.269c0.848-0.708-0.355-0.992,0.775-1.63c1.133-0.638,1.84-1.274,2.189-2.055  c0.355-0.78,1.063-1.275,1.346-1.913c0.281-0.64,0.424-1.701,0.424-2.197s0-0.708,0.496-0.708c0.492,0,0.775-0.426,1.627,0.495  c0.85,0.922,1.557,0.779,1.98,1.273c0.424,0.497,0.424,0.779,0.777,0.566c0.354-0.212,1.412-1.771,2.264-2.268  c0.848-0.497,1.695-0.924,2.332-1.417c0.637-0.496,0.99-0.854,1.557-0.854s1.414-0.85,1.557,0.071s0.143,2.409,0.283,2.976  c0.143,0.567,0.988,0.71,0.775,1.205c-0.211,0.496-0.988,0.641-0.988,0.641s-0.213,2.62,0,2.977  c0.213,0.354,0.709,0.566,1.133,0.566s0.918,0.143,1.27,0.426c0.355,0.283,1.697,0.283,2.404,0.777  c0.707,0.496,3.184,2.553,4.031,3.545c0.848,0.989,3.182,3.26,3.465,3.685c0.283,0.426,0.143,0.567,0.564,0.567  c0.424,0,0.777,0.281,0.92-0.071c0.143-0.354,0.426-0.708,0.92-0.992c0.492-0.283,2.826-0.142,3.322-0.069  c0.494,0.069,0.564,0.428,1.344,0.853c0.777,0.425,2.615,1.417,3.395,1.7c0.779,0.281,6.082,0.354,6.859,0.354  c0.775,0,0.988-0.851,0.988-0.851l1.201-0.07c0,0-0.141-0.566,0.709-0.638s2.896,0.141,3.322,0.212  c0.424,0.069,0.707,0.354,0.92,1.063c0.211,0.71,0.143,1.275,0.563,1.487c0.428,0.213,0.355,0.284,0.355,0.852  c0,0.566-0.564,0.709-0.775,1.349c-0.215,0.638-0.07,1.63-0.564,1.7c-0.496,0.068-0.779,1.135-1.133,1.273  c-0.354,0.143-0.777,0.214-0.707,0.779s1.344,1.487,1.344,1.487s2.334,1.771,3.182,1.982c0.854,0.212,1.697,1.63,2.479,2.056  c0.777,0.427,1.133,1.274,1.695,1.274c0.564,0,0.639,0.354,0.707,0.922c0.07,0.566,0.777,0.921,1.201,1.487  c0.426,0.565,0.426,1.418,0.426,1.418s0.775-0.284,0.775,0.564c0,0.852-0.211,2.904-0.424,3.331s-0.494,1.204-1.061,1.487  s-1.063,1.134-1.77,1.134s-0.988-0.068-1.484,0.145c-0.494,0.213-1.414-0.07-1.627,0.638s-0.988,1.417-0.707,2.622  c0.283,1.204-0.068,2.479-0.068,2.479l-0.779,0.427c0,0-0.141-0.427-0.563-0.64c-0.426-0.214-1.203-0.282-1.98-0.214  c-0.777,0.071-1.061,0.709-1.768,0.854c-0.707,0.142-1.627,0-1.627,0s-1.133,0.777-1.484,0.777c-0.354,0-1.131,0-1.131,0  s0-0.068-0.566,0.566c-0.564,0.639-1.131,1.204-1.414,1.771c-0.281,0.564-0.494,0.777-0.92,0.777c-0.424,0-2.051-0.142-2.688-0.283  c-0.635-0.143-0.988-0.564-0.988-0.564s-2.334-0.07-3.182-0.144c-0.852-0.069-1.064-0.069-1.064-0.069s0,1.063-0.354,0.99  c-0.354-0.068-0.85-0.281-0.85-0.281s1.063,0.426,1.484,0.777c0.424,0.354,1.131,1.136,1.627,1.771  c0.494,0.636,0.494,0.992,0.068,1.063c-0.426,0.067-0.92,0.213-1.557,0.563c-0.637,0.354-1.344,0.709-1.979,0.709  c-0.637,0-1.203,0.64-1.838,0.566c-0.639-0.07-4.381,0-4.381,0s-0.99,0.851-1.025,1.595s-0.143,1.417-0.602,1.665  s-1.098,0.177-1.309,0.461c-0.213,0.283-0.604,0.212-0.742,0.46c-0.143,0.249-0.283,0.604-0.742,0.604  c-0.461,0-0.92-0.07-1.271-0.283c-0.355-0.212-0.178-0.283-0.566-0.854c-0.389-0.563-0.637-1.063-0.953-1.346  c-0.314-0.284-0.707-0.532-0.955-0.886c-0.246-0.354-0.459-0.641-0.705-0.815c-0.248-0.177,0.033-0.212-0.426-0.315  c-0.459-0.106-3.184-0.106-3.355-0.106c-0.178,0-0.742,0.708-0.99,0.708s-1.379,1.063-2.018,1.453  c-0.637,0.39-1.52,1.098-1.805,1.204c-0.281,0.104-1.447,0.391-1.768,0.851c-0.318,0.461-1.875,2.126-2.121,2.374  c-0.248,0.248-1.203,1.136-1.484,1.35c-0.281,0.213-1.063,0.776-1.201,1.347c-0.145,0.566,0.033,1.063,0.604,1.487  c0.563,0.426,1.414,1.312,1.73,1.63c0.316,0.316,0.672,0.778,0.391,1.025c-0.283,0.247-0.566,0.215-0.852,0.743  c-0.279,0.532-0.813,0.604-1.063,0.815c-0.248,0.211-1.096,0.563-1.555,0.921c-0.461,0.354-1.168,0.851-1.521,1.099  s-0.564,0.106-0.707,0.676c-0.143,0.564-0.742,0.989-0.813,1.56c-0.072,0.565-0.461,1.735-0.852,2.09  c-0.389,0.355-0.953,1.101-1.201,1.382c-0.246,0.284-0.637,0.319-0.885,0.319s-0.424,0.673-1.414,0.813  c-0.988,0.144-10.045-0.212-10.045-0.212s-0.424-5.599-0.281-6.59c0.143-0.992,0.92-6.591,0.07-6.591  c-0.852,0-1.627,0.212-2.264,0.212c-0.639,0-2.615,0.071-3.254,0.071s-0.494-0.212-0.85-0.496c-0.354-0.283-0.07-0.354-0.707-0.354  c-0.639,0-0.777-0.213-0.777-0.213l-0.492-0.564c0,0,0-1.204,0-1.771c0-0.563,0.141-0.992,0.141-0.992s0.568-4.003,0.533-4.252  c-0.035-0.248,0.145-0.85,0.459-1.271c0.316-0.426,0.531-2.555,0.18-3.016c-0.354-0.46-0.92-1.382-1.416-1.699  c-0.492-0.316-0.672-0.777-1.309-0.99c-0.639-0.215-1.131-0.496-1.521-0.604c-0.391-0.104-0.92-0.248-0.885-0.565  c0.033-0.316,0.178-0.777,0.459-0.887c0.281-0.104,0.668-1.312,0.668-1.807c0-0.496-0.424-0.709,0.07-1.275  c0.494-0.564,0.92-1.204,0.92-1.204s0.494-0.144,0.494-0.923c0-0.776-0.564-1.771-0.988-2.268c-0.426-0.495-1.416-0.921-1.98-1.204  c-0.563-0.284-1.199-0.992-1.27-1.63c-0.068-0.64,0.563-1.275,0.707-1.843c0.143-0.566,0.566-0.923,1.414-1.562  c0.85-0.639,1.133-1.205,1.84-1.701c0.705-0.495,1.201-0.495,0.777-0.851c-0.428-0.354-0.213-0.212-0.777-0.638  c-0.564-0.428-0.92-0.283-0.92-0.779s0.494-0.283,0.85-0.709c0.354-0.425,0.775-0.566,1.131-1.063  c0.355-0.497,0.283-0.213,0.779-0.708c0.494-0.497,0.279-0.354,0.563-0.852s0.355-0.071,0.355-0.639  c0-0.566,0.211-2.058,0.211-3.049c0-0.99,0.283-1.56,0-2.194c-0.281-0.64-0.211-0.78-0.707-1.063  c-0.494-0.282-1.625-0.851-2.264-1.063c-0.637-0.212-1.344-0.392-1.557-0.744c-0.211-0.354-0.814-1.594-0.814-2.161  c0-0.565-0.707-1.486-0.707-1.948c0-0.461,0.07-0.922-0.143-1.272c-0.213-0.354-0.459-0.854-0.459-1.136s0.246-0.887-0.037-0.675  c-0.281,0.214-1.023,0.604-1.307,0.957c-0.283,0.354,0,0.496-0.707,0.674c-0.707,0.18-1.803-0.281-2.121-1.025  s-1.203-1.984-1.521-2.622l-0.867-1.412c-0.225-0.107-0.434-0.104-0.791-0.43c-0.391-0.354-0.707-0.248-0.639-0.814  c0.07-0.564-0.035-1.981-0.035-2.479s0.248-0.567,0.531-1.028c0.283-0.46,0.354-3.117,0.354-3.72c0-0.604,0.428-1.205-0.068-1.453  c-0.494-0.248-2.23-0.318-2.828-0.283c-0.6,0.035-0.494-0.071-0.99,0.143c-0.494,0.215-0.141,0.318-1.131,0.392  s-4.064,0.284-4.633,0.248c-0.564-0.035-1.025-0.178-1.484-0.248s-0.494,0.143-0.742-0.07c-0.246-0.213,0.145-0.426-0.529-0.461  c-0.672-0.035-0.672,0-1.344-0.213c-0.672-0.212-0.813-0.248-0.953-0.425c-0.143-0.178-0.674-0.779-0.674-1.382  c0-0.604-0.775-4.358-1.061-5.952c-0.283-1.597-2.156-5.421-2.793-6.697c-0.266-0.525-0.924-1.457-1.668-2.414l-0.588-0.732  c-0.896-1.103-1.793-2.105-2.201-2.412c-0.852-0.638-0.92-0.494-1.414-0.99c-0.496-0.496-0.777-0.213-1.414-0.283  s-1.064-0.709-1.559-0.779c-0.492-0.069-1.063-0.283-1.77-0.639c-0.707-0.354-1.27-0.354-1.627-0.638  c-0.354-0.284-0.281-0.923-0.775-1.562c-0.496-0.638-0.639-1.134-0.775-1.487c-0.145-0.354-0.496-0.777-0.496-0.777  s-0.283,0.143-0.637-0.071c-0.355-0.213-0.215-0.425-0.777-0.425c-0.564,0-0.777,0.564-0.777,0.564s-0.494,0.427-1.414,0.427  s-1.061,0.213-1.414-0.144c-0.354-0.354-0.281-0.283-0.707-0.709c-0.424-0.426-0.637-0.709-0.637-0.709s0.143-0.282-0.496-0.425  c-0.635-0.143-0.705-0.213-1.482-0.213s-7-0.213-8.133-0.283s-1.768-0.282-2.191,0.07c-0.422,0.354-0.424,0.565-1.131,0.709  c-0.707,0.142-1.484,0.709-1.908,1.205c-0.426,0.496-0.637,0.777-1.344,0.921c-0.707,0.143-1.416,0.143-2.266,0.143  c-0.848,0-4.877,0.177-4.877,0.177s-0.281,0.18-0.602,0.318c-0.322,0.14-0.742,0.426-1.025,0.496c-0.281,0.071-0.6-0.177-0.74,0.283  c-0.143,0.461-0.885,0.779-0.885,1.561c0,0.78,0.283,1.561,0.035,1.983c-0.248,0.425-0.424,0.744-0.742,1.063  c-0.316,0.318-1.379,0.53-1.662,0.565c-0.281,0.036-0.213,0.248-1.023,0.391c-0.217,0.038-0.391,0.064-0.537,0.086l0.078-0.012  c-0.021-0.239-0.061-0.46-0.123-0.648c-0.424-1.272,0-1.84-0.988-1.979c-0.99-0.142-2.828-0.282-4.666-0.282  c-1.836,0-1.27,0.564-2.119-0.282c-0.848-0.85-1.27-1.694-1.27-1.694s-0.145-1.413,0.424-2.264c0.564-0.849,1.838-2.118,1.98-2.968  c0.141-0.85-1.271-3.534-1.135-4.521c0.113-0.794-0.684-1.861-1.365-2.545c0.371-0.635,0.383-0.866,1.377-0.991  c1.133-0.144,0.852-1.313,1.203-1.699c0.355-0.39,0.852-0.496,1.271-0.496c0.424,0,1.236,0.143,1.484,0.354s1.133,0.316,1.873,0.316  c0.742,0,2.299,0.105,2.512,0.248c0.211,0.144,0.564,0.392,0.92,0.392c0.354,0,1.131,0.281,1.379,0.426  c0.246,0.143,0.281,0.354,0.355,0.708c0.066,0.354,0.354,0.852,0.527,1.063c0.176,0.212,0.459,0.425,0.742,0.708  c0.283,0.284,0.529,0.105,1.557,0.354c1.025,0.248,1.73,0,1.807-0.425c0.066-0.427,0.176-2.905,0.176-3.543  c0-0.64,0.07-0.64,0.529-0.744c0.461-0.105,1.414-0.676,1.77-0.922c0.354-0.248,0.672-0.392,0.99-0.427  c0.314-0.033,0.953-0.604,1.166-0.851c0.211-0.248,0.602-0.318,0.707-0.496c0.104-0.178,0.104-1.135,0.104-1.595  c0-0.461-0.281-0.674-0.424-1.063s-0.354-0.565-0.707-0.992c-0.355-0.425-0.445,0.347-0.73-0.36  c-0.281-0.707,0.143-2.544,0.99-2.968c0.85-0.427,2.119,0,2.119,0s0.99,0.424,1.98,1.131c0.986,0.706,1.979,1.556,1.979,1.556  s1.838,0,2.826-0.143c0.99-0.144,0.564-0.707,1.271-1.557c0.705-0.849,6.502-3.251,7.633-3.958  c1.131-0.706,12.014-6.219,13.285-7.208c1.27-0.987,3.957-1.555,4.807-1.979c0.438-0.218,0.984-0.623,1.492-1.102  c0.688,0.604,2.17,0.565,2.898,0.219c0.74-0.354,3.396-3.475,5.195-3.791c1.805-0.318,4.984-1.24,5.48-1.418  c0.494-0.179,2.367-1.735,3.746-1.24c1.381,0.496,4.49,1.844,5.021,1.914c0.531,0.069,3.146,2.479,5.305,2.409  c2.156-0.071,2.121-1.453,3.146-2.021c1.025-0.566,2.51-0.461,3.783-0.461c1.271,0,8.096,0.213,8.662,0.07  c0.564-0.144,1.096-0.922,1.943-0.922c0.846,0,2.439,0.852,3.465,1.134c0.76,0.208,1.592,0.166,2.529,0.656l0,0l-0.09,0.018  c0,0-0.424,0.425-1.064,1.063c-0.637,0.638-3.465,2.552-4.172,3.969s-1.908,1.913-2.264,2.622c-0.354,0.708-1.555,2.622-2.334,3.543  c-0.777,0.921-0.918,0.852-0.918,1.771c0,0.922-0.424,1.274,0.283,1.913c0.707,0.638,0.848,1.274,1.908,1.274s3.465,0,4.24,0  c0.779,0,1.273-0.069,1.203-0.496c-0.068-0.425,0-2.055,0-2.479c0-0.426-0.424-1.205,0.143-1.417  c0.564-0.213,1.271-0.426,1.84-0.144c0.563,0.284,0,0.852,0.988,0.923c0.988,0.069,0.705,0.212,1.271,0.069  c0.564-0.144,1.482-0.425,1.91-0.852c0.424-0.426,1.131-1.486,1.838-1.7s0.92-0.566,1.838-0.639c0.92-0.072,0.424-0.354,1.557,0.144  c1.133,0.495,1.201,1.346,2.404,1.417c1.201,0.069,5.869,0.709,7,0.852c1.131,0.142,2.189,0,3.252-0.07  c1.063-0.069,6.082-1.135,6.859-1.274c0.775-0.144,0.775-0.495,2.688-0.354c1.91,0.143,2.404,0.425,3.891,0.495  c1.482,0.07,1.203,0.213,2.264,0c0.551-0.11,0.814,0.027,0.912,0.037"
   style="fill:#808080" />
<path
   fill="#E99415"
   stroke="#FFFFFF"
   stroke-width="0.5"
   d="M347.291,128.697c-0.104,1.187-0.207,2.359-0.207,2.71  c0,0.707-0.988,2.401-0.988,2.401l0.707,0.706l0.705,2.403c0,0,0.145,0.846,0.145,1.695c0,0.166-0.033,0.408-0.084,0.705l0,0  c-0.254-0.369-0.904-0.492-0.904-0.494l-2.4,1.624c0,0-3.111,0.85-3.818,3.958c-0.688,3.034-2.594,4.589,1.254,7.258  c0.918,0.639,2.334,1.843,2.688,2.622c0.355,0.778,0.775,3.543,0.213,4.251c-0.564,0.709-0.564,1.348-1.695,1.348  s-4.314-0.425-5.021-0.496s-1.201,0.496-2.119,0.566c-0.92,0.069-1.957-0.143-3.938,1.13s-4.41,2.769-5.045,3.548  c-0.639,0.78-1.627,2.764-2.053,3.473c-0.424,0.708-0.852,4.108-0.852,4.747c0,0.64-0.424,3.614-0.424,3.971  c0,0.354-0.424,0.496-0.92,1.134c-0.494,0.639-2.191,2.056-2.756,2.409c-0.566,0.354-1.91,1.982-1.98,2.691  c-0.055,0.539-0.063,1.857-0.66,2.583c0.072-0.268,0.766-1.115-0.576-1.518c-1.414-0.422-1.131-2.402-2.119-4.522  s-3.111-5.088-4.383-6.077c-1.271-0.987-5.652-1.131-7.066-1.131c-1.412,0-0.141-7.065-0.988-8.196s-4.946-1.271-6.077-1.271  c-0.355,0-0.861-0.016-1.424-0.025l-1.394-0.011c-0.837,0.008-1.636,0.05-2.144,0.177c-1.132,0.285-4.524,3.958-5.797,4.809  c-1.271,0.847-1.837,2.969-3.107,3.533c-1.272,0.563-2.12,0.987-3.394,0.987c-1.272,0-1.696,0.707-2.687,1.695  c-0.989,0.989-4.522,4.098-6.078,4.947c-1.555,0.849-6.926,1.837-9.327,1.837s-2.827-0.564-3.958-0.707s-3.11,1.13-4.382,1.271  c-1.271,0.142-4.239-1.694-4.946-1.838c-0.707-0.14-2.544-1.693-3.394-2.826c-0.849-1.131-1.13-2.118-1.13-2.118l-3.534-1.557  l-3.108-0.85c0,0-3.674,0.563-4.521,0.989c-0.714,0.357-2.029,1.515-3.438,2.63c-1.646-2.056-1.376-1.505-2.075-2.205  c-0.707-0.707-1.695-1.131-2.545-2.12c-0.848-0.99-2.968-2.121-4.238-2.262c-1.274-0.144-1.274-2.688-1.132-3.677  c0.143-0.987-0.707-3.251-0.707-3.251s-3.391-0.281-3.814-0.987c-0.425-0.709-0.282-4.383-0.425-5.938  c-0.141-1.553-0.705-2.968-1.271-4.24c-0.565-1.271,0.564-1.837,0.564-3.106c0-1.274,1.907-3.181,2.756-4.313  c0.849-1.131-0.776-3.888-1.483-5.158c-0.706-1.273-2.262-4.523-2.544-5.938c-0.281-1.414,2.12-3.252,4.382-5.089  c2.263-1.837,4.384-3.392,6.928-3.816c0.055-0.008,0.121-0.016,0.188-0.023c0.13,0.122,0.221,0.212,0.221,0.212  s1.626,0.07,2.688,0.07c0.64,0,0.945-0.131,1.258-0.276c1.165,0.049,2.464,0.121,3.8,0.211l0.316,0.137  c0.495,0.213,0.071,1.701,0.214,2.554c0.141,0.851,0.848,2.764,1.131,3.328c0.282,0.568,0.989,1.49,1.414,2.057  c0.425,0.567,0.494,0.923,1.908,1.135c1.415,0.213,2.334-0.07,2.616-0.779c0.283-0.708,0.353-1.7,1.415-3.118  c0.652-0.87,2.3-2.166,3.635-3.098l0.271-0.321c0.351-0.456,0.768-0.978,1.049-1.259c0.564-0.564-0.919-1.488-1.346-1.982  c-0.424-0.496-1.694-0.991-2.121-1.487c-0.424-0.496-0.775-1.983-0.706-2.765c0.07-0.778,0.282-0.354,0.706-0.565  c0.427-0.213,1.979-2.271,2.478-2.693c0.494-0.425,1.344-0.425,1.696-0.708c0.354-0.284,0-1.063-1.063-1.205  c-1.062-0.142-2.971-1.981-3.535-2.479c-0.563-0.495-0.988-1.134-1.062-1.771c-0.071-0.638-0.708-1.346-0.99-1.98  c-0.282-0.642,0.282-0.071,0.707-0.496c0.425-0.427,0.07-0.64,0.07-1.135c0-0.496,0.354-1.913,0.849-2.554  c0.495-0.638,1.202-0.851,1.771-0.921c0.563-0.069,2.051,0,2.827,0s0.426,0.145,0.776,0.496c0.354,0.354,0.213,0,0.778,0  c0.563,0,2.121-1.063,2.616-1.205c0.493-0.142,0.707-1.981,0.919-2.408c0.212-0.426,1.132-1.699,1.132-1.699l1.048-1.201l0,0  c0.372,0.774,0.841,1.58,1.286,1.621c0.775,0.069,1.343-0.567,2.05-0.779c0.707-0.213,1.271-0.779,2.122-0.354  c0.85,0.426,0.919,1.843,1.482,2.194c0.564,0.354,1.558,0.428,2.477,0.354c0.92-0.07,1.132-0.567,1.979-0.992  c0.85-0.425,1.696-0.425,2.265,0.426c0.563,0.852,0.775,4.676,0.85,5.813c0.069,1.135-0.213,2.056,0.354,2.056  c0.564,0,2.121,1.063,2.614,1.205c0.495,0.142,2.121,1.63,2.265,2.479c0.143,0.854,0.563,3.546,1.414,4.323  c0.849,0.779,1.695,1.7,3.253,2.479c1.556,0.777,3.041,2.978,3.604,3.757c0.564,0.778,1.201,2.338,1.344,2.904  c0.144,0.564,0.427,2.69,0.354,3.331c-0.07,0.639-1.062,0.921-1.627,1.133c-0.564,0.214-0.494,1.982-0.849,1.982  c-0.355,0-1.133-0.496-1.84-0.777c-0.707-0.282-1.907-0.282-2.688,0.426c-0.776,0.709-1.838,1.063-1.979,2.056  c-0.143,0.991,0.354,1.7,0.638,2.622c0.281,0.921,1.415,2.055,2.264,2.409c0.85,0.354,2.121,0.991,3.535,1.417  s1.909,0.638,3.748,1.063c1.225,0.283,2.888,0.156,4.091,0.041l0.001,0.004c0.605-0.056,1.094-0.111,1.354-0.111  c0.776,0,1.344-1.063,1.839-1.913c0.495-0.852,1.132-1.205,1.414-1.701c0.281-0.496-0.212-1.56-0.212-1.56s-0.637-0.78,0.142-1.349  c0.777-0.565,1.555-1.346,1.696-2.126c0.142-0.777,0.069-1.982,0.496-2.479c0.424-0.495,1.626-1.561,2.614-1.913  c0.989-0.354,1.414-1.488,1.414-2.196c0-0.709,0.072-1.985,0.638-2.339c0.565-0.356,1.979-1.205,1.979-1.843  c0-0.64-0.635-1.983-1.273-2.409c-0.636-0.425-1.272-0.568-0.919-1.134c0.355-0.566,1.203-1.631,1.841-2.127  c0.635-0.496,0.918-0.993,0.918-1.561c0-0.565,0.068-2.126-0.426-2.835c-0.492-0.708-0.635-0.636-0.281-1.273  c0.354-0.64,1.484-1.701,1.271-2.766c-0.213-1.061-1.129-2.622-1.482-3.33c-0.354-0.709-0.566-1.56-0.428-2.056  c0.143-0.496,1.557-1.204,2.617-1.204s2.543,0.285,3.605,0.144c1.061-0.144,1.98-0.284,2.051-0.853  c0.072-0.564,0.072-2.763-0.281-3.399c-0.354-0.638-0.354-1.983-0.354-2.904c0-0.136,0.002-0.281,0.004-0.436l0.004-0.143  c0.023-0.87,0.115-1.94,0.344-2.687c0.283-0.924,0.496-2.479,1.273-3.05c0.775-0.563,0.92-1.559,1.906-1.842  c0.99-0.284,1.559-1.631,1.559-2.197c0-0.563-1.344-1.698-1.98-2.055c-0.635-0.354-2.545-1.418-2.402-2.197  c0.145-0.777,0.355-3.26,0-3.543c-0.354-0.281-1.557-1.347-1.979-1.347c-0.426,0-1.416-0.354-1.91-0.851s0.213-1.205,0.355-1.562  c0.141-0.354,0.354-1.981,0.354-1.981s-1.271-0.215-1.91-0.641c-0.637-0.425-1.27-0.85-1.199-1.346  c0.068-0.496,0.564-2.057,0.564-2.48c0-0.426-0.355-2.055-0.85-1.771c-0.494,0.283-1.133,1.487-1.133,1.842  c0,0.354-0.426,0.566-0.918,0.639c-0.496,0.07-2.404,0.427-2.971,0.427c-0.563,0-1.414,0.426-1.557-0.213  c-0.142-0.64,0-2.057,0-2.834c0-0.779-0.564-2.126-1.344-2.341c-0.777-0.213-1.838-0.921-1.838-0.921s-0.389-2.056-0.315-2.655  c0.07-0.604,0.602-2.306,1.413-3.188c0.813-0.887,1.805-2.056,2.972-2.409c1.167-0.354,3.785-0.744,4.349-0.813  s1.592-0.494,2.477-0.742s3.814-1.103,5.16-1.811c1.344-0.709,1.979-0.354,1.906-1.63c-0.068-1.273,0.355-1.913-0.426-2.69  c-0.775-0.778-0.707-1.136-0.281-1.771c0.428-0.638,1.559-3.614,2.689-4.323s2.545-2.193,4.104-2.976  c1.555-0.78,1.271-1.561,2.334-1.843c1.061-0.283,2.475,0.638,2.969,1.347c0.496,0.708,1.486,2.978,2.688,4.817  c1.203,1.843,2.053,4.32,2.898,5.952c0.848,1.63,0.779,2.622,1.699,3.97c0.918,1.347,1.342,2.196,2.686,2.904  c1.344,0.709,1.91,1.56,3.254,2.056c0.867,0.32,1.914,0.968,2.852,1.461l0.271,0.143c0.408,0.205,0.787,0.369,1.115,0.45  c1.131,0.283,2.189,1.063,2.971,0.708c0.777-0.354,0.635-1.273,2.121-2.622c1.484-1.346,3.535-4.251,5.09-5.385  c1.559-1.136,3.396-3.331,4.738-4.183c1.344-0.852,2.123-1.632,3.535-1.844c1.416-0.213,6.363-0.564,6.223,0.427  c-0.141,0.99,0.072,3.825,0.496,4.32c0.424,0.496,0.777,0.64,1.627,0.145s2.898-2.48,3.676-3.188  c0.779-0.708,2.549-3.399,4.811-3.968c2.264-0.568,6.719-1.488,7.637-1.418c0.92,0.07,3.678,0.142,4.596-0.213  c0.922-0.354,4.314-1.347,5.658-1.204c1.344,0.142,3.322,0.496,2.404,1.347c-0.92,0.852-2.689,5.388-3.184,7.726  c-0.494,2.34-1.133,4.748-0.494,6.021c0.637,1.275,3.395,3.896,5.375,4.748c1.979,0.853,4.734,2.979,4.383,3.827  c-0.354,0.85-1.131,1.7-1.131,2.622c0,0.21-0.029,0.604-0.063,1.089c-0.209-0.01-0.41-0.023-0.588-0.048  c-1.131-0.142-2.262,0.564-2.262,0.564s-0.852,0.424-1.559,0.85c-0.707,0.424-0.988,2.825-1.414,3.675  c-0.424,0.848-1.27,4.521-2.117,4.664c-0.85,0.142-2.688,0.848-2.688,1.979c0,0.511,0.008,1.008,0.016,1.446l-0.008,0.526  l0.145,0.146c0,0,0.424,0.426,0.707,1.133c0.279,0.707,1.27,1.556,1.27,1.556s-0.707,1.555-0.85,2.262  c-0.143,0.706-0.564,0.989-0.707,1.837c-0.141,0.851,0.564,0.99,1.557,2.121c0.988,1.13,0.988,3.394,0.988,3.394  s-1.271,0.987-1.98,2.401c-0.705,1.413,0.707,4.664,0.99,5.514c0.281,0.85,0.424,2.118,0.143,2.969c-0.281,0.849-1.27,0-1.979,0.142  c-0.707,0.144-3.533,1.696-4.947,2.262c-1.412,0.565-3.531,3.252-4.52,4.384c-0.99,1.132-1.838,3.531-1.98,4.664  c-0.141,1.132-1.555,0.987-0.848,1.979c0.707,0.989,0.707,1.838,0.707,3.108c0,1.271-1.414,1.694-2.402,2.263  c-0.988,0.563-4.666,3.533-6.502,4.099c-1.838,0.565-6.926,2.688-8.623,2.688c-1.693,0-2.4-0.85-4.238-1.132  c-1.838-0.281-2.826,0.563-3.533,0.85c-0.707,0.282-2.545,1.413-2.545,1.413l-1.557,1.979c0,0-0.199-0.199-0.51-0.458"
   id="path6" 
   style="fill:#808080"/>
<path
   id="_x31__11_"
   d="M222.758,123.749c-0.067,0.007-0.131,0.015-0.188,0.024  c-2.544,0.423-4.663,1.979-6.926,3.814c-2.264,1.838-4.664,3.675-4.382,5.09c0.281,1.415,1.838,4.665,2.545,5.938  c0.705,1.271,2.332,4.027,1.481,5.159c-0.849,1.131-2.756,3.038-2.756,4.312c0,1.27-1.13,1.837-0.565,3.107  c0.565,1.271,1.131,2.686,1.272,4.239c0.141,1.557,0,5.23,0.424,5.938c0.422,0.706,3.814,0.988,3.814,0.988s0.85,2.262,0.707,3.251  c-0.141,0.988-0.141,3.532,1.131,3.676c1.271,0.141,3.392,1.271,4.24,2.262c0.85,0.989,1.838,1.413,2.544,2.119  c0.7,0.701,0.429,0.151,2.075,2.205c-0.267,0.211-0.533,0.421-0.805,0.622c-1.695,1.272-4.521,6.502-4.521,6.502l0.146,0.206  c-5.513-0.623-1.514,0.666-2.688,0.782c-1.413,0.143-4.099,0.282-5.229,0.707s-1.978,0.705-3.676,0.281  c-1.697-0.425-5.088-0.143-7.351-0.143s-5.089,1.414-6.502,1.838c-0.609,0.184-1.793,0.339-3.048,0.436  c0.24-0.154,0.397-0.288,0.397-0.288s0.636-8.009,0-8.718c-0.635-0.709-1.554-3.827-1.484-4.321c0.07-0.495-0.212-1.632-0.85-1.632  c-0.634,0-2.615,0.145-3.11-0.281c-0.495-0.427-1.769-1.348-2.546-2.271c-0.776-0.921-1.344-3.259-1.626-4.394  c-0.283-1.134-0.282-3.4-1.344-4.604c-1.063-1.207-1.063-2.553-3.466-3.687c-2.403-1.136-3.111-1.204-3.747-1.417  c-0.638-0.213-1.274,0.07-1.839-0.283s-0.919,0.072-1.202-1.204c-0.283-1.277-0.212-3.543-0.777-4.182  c-0.563-0.638-1.696-1.486-2.333-1.771c-0.638-0.284-1.769-0.425-2.688-0.354c-0.922,0.069-3.112,0-3.537,0.069  c-0.425,0.07-0.848,0.921-1.557,0.921s-2.123,0.073-2.688-0.565c-0.566-0.636-1.131-2.053-1.345-2.904  c-0.213-0.85-0.425-2.479-0.637-3.188c-0.167-0.557-0.682-1.287-0.896-1.575c0.19-0.254,0.313-0.427,0.313-0.427l1.557-1.413  c0,0,1.837-1.98,1.979-2.688c0.14-0.707,1.13-0.991,0.988-2.545s-0.848-3.391-1.695-4.24c-0.849-0.848-2.12-1.413-2.12-2.544  s1.414-4.1,1.556-5.371c0.144-1.271,0.282-3.675,1.132-4.382c0.848-0.706,0.422-2.261,1.271-3.393  c0.848-1.131,2.12-3.251,2.826-4.101c0.707-0.849,1.838-1.555,1.838-2.262s-1.272-1.837-2.263-2.827  c-0.988-0.987-0.988-1.837-1.131-2.826c-0.128-0.898,0.209-2.728,0.271-3.059l0,0c0.258-0.111,0.415-0.187,0.461-0.209  c0.271-0.233,2.788-2.781,5.08-5.063l0.646-0.655c1.628-1.613,3.011-2.953,3.18-3.008c0.424-0.144,1.271-0.78,1.696-1.134  c0.425-0.354,3.604-3.118,5.304-4.467c1.696-1.347,2.758-3.047,3.184-3.686c0.425-0.638,0.638-4.321,0.281-4.605  c-0.354-0.281-2.295-2.304-2.576-2.517c-0.282-0.212-1.557-1.417-1.769-1.63c-0.214-0.212-0.283-2.729-0.144-2.904  c0.144-0.178,0.493-0.674,0.493-0.922s0.99-1.982,1.346-2.268c0.145-0.118,0.008-0.265-0.198-0.393l0,0  c0.198,0.064,0.371,0.115,0.509,0.146c0.989,0.213,1.979,0.922,2.688,1.063c0.707,0.144,1.344,0.566,2.617,0.566  c1.271,0,5.02,0.212,5.442,0.143c0.424-0.071,0.494-1.063,0.989-1.417c0.494-0.354,0.282-0.992,2.051-0.992  c1.771,0,2.688-0.354,3.396-0.496c0.707-0.143,1.626-0.069,2.263,0.212c0.638,0.284,1.132,0.145,1.769,0.145  c0.639,0,0.99,0.143,1.627,0c0.638-0.145,0.777-0.779,1.271-1.487c0.495-0.709,0.354-1.914,1.272-1.273  c0.92,0.638,0.849,0.851,1.344,1.698c0.495,0.852,1.414,1.983,1.344,2.835s-0.564,1.845-0.989,2.27  c-0.425,0.426-0.988,0.992-0.495,1.417c0.495,0.426,2.334,0.564,3.185,0.709c0.85,0.143,1.909,0.565,2.828,0.639  c0.919,0.069,1.839,0.565,2.19,1.417c0.354,0.853-0.069,2.126,0.638,2.409c0.708,0.282,2.052,0,2.827,0.921  c0.776,0.922,1.84,2.058,2.404,2.835c0.564,0.778,1.271,1.843,2.403,1.63c1.131-0.213,2.402-2.126,3.252-2.834  c0.85-0.709,1.484-2.339,2.051-2.622c0.566-0.282,1.345-0.354,2.478-0.282c1.132,0.07,2.12,0.639,2.688,0.922  c0.566,0.282,2.264,0.354,3.041,1.7c0.777,1.347,1.769,4.252,1.979,6.447c0.214,2.195,0,3.047,1.063,3.047  c1.063,0,3.041-0.069,3.041,0.709c0,0.779-0.142,4.535,0.495,4.535c0.229,0,0.436,0.217,0.62,0.489  c3.295-1.151,6.229-0.075,8.71,2.147l-0.491,0.126l-2.051,2.338c0,0-0.919,1.273-1.132,1.701c-0.214,0.425-0.426,2.268-0.921,2.407  c-0.493,0.143-2.051,1.205-2.614,1.205c-0.564,0-0.424,0.354-0.776,0c-0.354-0.354,0-0.496-0.778-0.496  c-0.776,0-2.263-0.069-2.827,0c-0.563,0.069-1.271,0.282-1.77,0.921c-0.496,0.64-0.849,2.057-0.849,2.553s0.354,0.709-0.07,1.134  c-0.425,0.427-0.99-0.144-0.707,0.496c0.282,0.639,0.919,1.348,0.989,1.982c0.068,0.64,0.495,1.274,1.062,1.771  c0.565,0.496,2.477,2.339,3.535,2.479c1.063,0.144,1.415,0.923,1.063,1.205c-0.354,0.282-1.203,0.282-1.697,0.708  c-0.494,0.427-2.051,2.479-2.478,2.692c-0.424,0.212-0.636-0.213-0.707,0.566c-0.068,0.778,0.283,2.268,0.707,2.764  c0.427,0.496,1.697,0.992,2.122,1.488s1.909,1.417,1.345,1.982s-1.696,2.126-1.696,2.126s-0.032,0.298-0.104,0.835  c-1.154-0.09-1.917-0.101-1.647,0.236c-0.635,0.532-1.188,1.057-1.502,1.479c-1.063,1.417-1.132,2.409-1.414,3.117  s-1.201,0.991-2.615,0.778c-1.415-0.212-1.485-0.566-1.91-1.134c-0.424-0.566-1.131-1.488-1.414-2.056  c-0.281-0.566-0.988-2.479-1.131-3.331c-0.143-0.853,0.281-2.339-0.213-2.552c-0.494-0.214-1.413-0.639-2.051-0.639  c-0.637,0-0.565-0.213-1.344,0c-0.778,0.212-0.92,0.566-1.979,0.566c-1.063,0-2.688-0.07-2.688-0.07L222.758,123.749z"
   stroke-width="0.5"
   stroke="#FFFFFF"
   fill="#EAD632"
   style="fill:#808080" />
<path
   id="_x31__13_"
   fill="#107179"
   stroke="#FFFFFF"
   stroke-width="0.5"
   d="M136.387,102.621c0.368,0.1,0.692,0.181,0.952,0.229  c1.413,0.282,0.424,0.426,1.413,0.282c0.989-0.142,2.544-3.107,3.675-3.676c1.131-0.567,4.522-3.532,5.229-3.675  c0.707-0.144,0.85-0.988,1.839-0.988c0.988,0,2.544,0.564,2.544,0.564s1.131,0.987,2.12,1.838c0.988,0.849,3.532,1.271,3.532,1.271  l6.077-0.143l-0.011,0.053c0.257-0.111,0.415-0.188,0.452-0.22c0.495-0.425,8.484-8.573,8.91-8.716  c0.424-0.144,1.271-0.78,1.696-1.136c0.425-0.354,3.604-3.116,5.304-4.465c1.696-1.347,2.758-3.047,3.184-3.686  c0.425-0.64,0.637-4.321,0.281-4.605c-0.354-0.283-2.295-2.304-2.577-2.517c-0.281-0.212-1.556-1.417-1.77-1.63  c-0.212-0.212-0.282-2.729-0.142-2.904c0.141-0.177,0.494-0.674,0.494-0.922c0-0.247,0.989-1.983,1.345-2.27l-0.944-0.661  c-1.238-0.495-2.814-1.295-3.264-1.845c-0.637-0.777-1.909-1.559-2.759-2.196c-0.849-0.639,0.85-1.56,1.415-2.126  c0.566-0.567,0.494-2.339-0.07-3.048c-0.564-0.708-2.896-7.086-3.249-8.291s-0.92-3.401-0.955-3.756  c-0.034-0.354-0.177-3.118-0.177-3.118s-2.409-0.068-3.188-0.068c-0.777,0-1.061-0.566-1.414-1.418  c-0.289-0.699-1.823,0.659-2.714,1.364l-0.069,0.041c-0.166,0.132-0.304,0.232-0.404,0.289c-0.637,0.354-1.979,0.144-1.979,0.144  s-0.283-1.913-0.07-3.474c0.214-1.56,0.707-1.275,1.414-1.631c0.707-0.354,0.992-1.204,0.495-1.842  c-0.497-0.639-2.688-1.205-2.688-1.205s-3.112-0.143-3.891-0.213c-0.776-0.07-0.85-0.851-1.415-1.631  c-0.565-0.778-1.343,0.709-1.343,0.709s-0.638,0.213-2.334,0.071c-1.697-0.142-1.626-0.708-2.189-1.701  c-0.564-0.992,0.143-1.205-0.071-2.764c-0.212-1.561-2.899-1.349-3.396-1.844c-0.496-0.496-1.061-2.339-1.201-2.904  c-0.143-0.565-2.617-0.923-2.972-0.992c-0.218-0.044-2.077-1.03-3.751-1.798l-0.247-0.108c-0.943-0.425-1.797-0.757-2.22-0.781  c-1.202-0.073-2.052,0.778-2.052,0.778s-5.546-0.035-6.396,0.104c-0.85,0.142-1.626,1.24-2.476,1.488  c-0.851,0.248-1.311-0.143-2.086-1.135c-0.777-0.991-1.696-1.204-3.288-1.204c-0.436,0-0.734-0.034-0.943-0.106l0,0  c-0.61,0.868-1.15,1.407-1.474,1.449c-1.273,0.142-2.97,1.414-3.676,2.12c-0.707,0.707-1.132,3.674-2.263,3.815  c-1.131,0.141-2.12-0.566-3.534,0.563c-1.412,1.131-3.25,1.698-3.531,2.97c-0.281,1.272-2.263,5.371-2.12,7.351  c0.143,1.978-0.988,6.502-2.401,7.49c-1.415,0.988-4.807,2.827-6.645,3.252c-1.838,0.423-2.97,0.423-4.101,0.706  c-1.131,0.281-2.687,0-2.687,1.131c0,1.132,2.121,2.12,2.687,3.251c0.567,1.132,0.144,3.676,1.131,5.371  c0.991,1.694,2.734,4.045,3.019,4.967s0.424,1.913,0.849,2.621c0.424,0.71,2.758,1.063,3.678,2.269  c0.919,1.205,1.908,1.844,2.191,3.614s0.495,3.047,1.626,4.039c1.132,0.991,1.344,2.268,2.121,3.756  c0.777,1.49,0.636,2.692,0.07,4.181c-0.566,1.49-1.84,2.622-2.546,3.262c-0.688,0.621-0.843,1.438-1.563,1.228  c0.161,0.476,0.273,0.885,0.308,1.163c0.144,1.131,0.85,1.838,1.413,2.827c0.567,0.988,1.557,1.979,1.557,2.968s0,1.555-1.271,2.827  c-1.271,1.271-2.687,1.554-2.544,3.532c0.143,1.978-0.143,3.676,0.707,4.945c0.847,1.271,2.401,2.12,1.694,3.533  c-0.705,1.415-1.694,3.111-2.401,3.395c-0.269,0.107-0.571,0.152-0.896,0.174c0.372,0.594,0.73,1.063,1.037,1.239  c0.99,0.563,0.759,0.654,2.599,1.082c0.227,0.052,0.478,0.115,0.742,0.188c0.567-0.5,1.056-0.848,1.748-0.848  c0.988,0,2.544,0,3.814,0c1.271,0,0.707,0.143,1.696-1.271c0.988-1.414,1.694-2.122,2.825-2.262c1.132-0.141,0.85,0.424,0.85,0.424  s1.556,0,2.826,0.144c1.271,0.141,0.563,0.423,1.271,0.987c0.707,0.566,0.707-0.707,0.564-1.413  c-0.143-0.707-0.565-1.979-0.425-3.393c0.141-1.413,2.401-4.664,2.401-4.664s0.848,0,1.695-0.283c0.85-0.281,2.263-2.4,3.395-2.826  c1.129-0.424,1.837,0,3.107,0.282c1.273,0.283,1.837,0,3.394,0.424c1.27,0.347,3.765,1.165,5.407,1.607"
   style="fill:#808080" />
<path
   id="_x31__15_"
   fill="#B6CED9"
   stroke="#FFFFFF"
   stroke-width="0.5"
   d="M59.451,164.124L59.451,164.124  c-0.787-1.325-1.581-2.712-2.257-3.462c-1.271-1.413-2.971-4.521-3.533-6.076c-0.565-1.557-2.402-5.09-3.25-6.078  c-0.85-0.989-2.121-2.687-2.121-2.687s-0.849-1.133-0.142-1.837c0.707-0.707,1.694-1.271,1.694-1.271l-0.142-1.696  c0,0-0.999,0.339-0.896-0.05c0.105-0.391-0.281-0.957,0.105-1.276c0.39-0.316,0.777-1.063,0.884-1.485  c0.105-0.426,0.212-0.566,0.212-1.063s0.392-0.213-0.068-0.673c-0.46-0.461-1.77-1.063-2.265-1.522s-2.054-2.691-2.762-2.978  c-0.707-0.283-0.354,0.496-1.132-0.213c-0.776-0.708-1.838-2.269-2.333-3.261c-0.495-0.991-0.565-0.853-1.272-1.349  c-0.707-0.493-0.849-1.063-1.907-1.417c-1.062-0.354-1.202-0.777-2.191-2.479c-0.989-1.7-2.051-4.465-2.477-5.739  s-0.494-2.622-0.775-3.614c-0.283-0.99-0.852-2.977-1.485-3.896c-0.637-0.923-1.839-3.545-2.19-3.97  c-0.216-0.26-0.3-1.189-0.331-2.296l-0.012-0.523c-0.01-0.57-0.011-1.165-0.011-1.72c0-1.843,0.213-7.229-0.07-8.646  c-0.281-1.417,0-2.69-0.425-3.612c-0.424-0.923-0.424-2.127-0.636-2.766c-0.213-0.639-0.212-0.779-0.778-1.486  c-0.349-0.438-0.537-0.777-0.638-1.055l5.222-4.396c0,0,3.395-3.395,5.371-3.677c1.979-0.281,2.741-0.864,4.229-1.325  c1.482-0.46,5.41-3.86,5.442-5.388c0.022-0.942,0.058-4.335,0.082-6.79l0.005-0.545c0.014-1.236,0.021-2.126,0.021-2.126  s4.349-2.126,4.949-2.195c0.602-0.07,1.592-1.809,0.742-3.226c-0.851-1.417-1.222-1.79-0.975-2.145  c0.248-0.354,0.938-0.888,2.546-0.124c1.608,0.763,2.793,0.564,3.694,0.46c0.901-0.105,2.811-0.938,2.739-2.106  c-0.069-1.17-0.564-3.474-0.564-3.474c0.283-0.426,1.695-1.313,2.758-1.487c1.063-0.177,2.881,0.02,3.343-0.267  c0.46-0.284,1.235-1.809,1.839-2.303c0.602-0.497,3.146-0.604,3.568-0.604c0.427,0,2.157-0.567,3.041-1.171  c0.886-0.602,1.839-1.842,2.121-3.295c0.283-1.452,0.032-10.098,0.032-10.098l-2.052-1.913c0,0-0.144-2.622,0.354-3.188  c0.495-0.564,2.972-3.188,3.748-3.543c0.777-0.354,2.121-1.701,3.396-2.196c1.271-0.496,4.103-0.709,5.305-0.354  s1.414,0.427,3.04-0.143c1.627-0.565,3.89-0.922,5.021-0.922c1.134,0,1.134-0.213,1.273-1.204c0.142-0.99,0-3.969,0-3.969  s2.266-1.521,4.423-2.442c2.156-0.924,4.172-1.771,6.011-1.524c1.84,0.248,2.545,1.205,3.467,2.374  c0.919,1.17,1.411,2.161,2.511,2.232c1.096,0.068,3.569-0.319,3.43,1.203c-0.143,1.522-0.813,1.063-0.672,2.196  c0.141,1.133,1.626,1.63,1.768,2.729c0.104,0.798,0.021,1.259,0.576,1.45c-0.607,0.867-1.148,1.407-1.487,1.444  c-1.271,0.144-2.971,1.413-3.677,2.119c-0.707,0.707-1.131,3.676-2.262,3.816s-2.12-0.565-3.533,0.563  c-1.414,1.132-3.251,1.696-3.534,2.969c-0.28,1.271-2.261,5.371-2.118,7.352c0.143,1.979-0.988,6.502-2.401,7.491  c-1.413,0.988-4.807,2.825-6.646,3.251c-1.837,0.424-2.968,0.424-4.099,0.707c-1.131,0.28-2.687,0-2.687,1.131  s2.118,2.12,2.687,3.251c0.567,1.131,0.143,3.675,1.131,5.371c0.989,1.693,2.733,4.045,3.018,4.966  c0.281,0.922,0.425,1.914,0.85,2.622c0.424,0.709,2.758,1.063,3.677,2.269s1.909,1.843,2.192,3.613  c0.282,1.771,0.494,3.047,1.626,4.039s1.344,2.269,2.122,3.756c0.774,1.488,0.636,2.692,0.067,4.182  c-0.563,1.489-1.839,2.622-2.546,3.262c-0.707,0.638-0.849,1.486-1.626,1.204l0.158,0.331c0.106,0.347,0.182,0.643,0.21,0.861  c0.144,1.131,0.851,1.838,1.414,2.826c0.564,0.989,1.555,1.979,1.555,2.969c0,0.988,0,1.555-1.271,2.826  c-1.271,1.271-2.688,1.556-2.544,3.533c0.142,1.979-0.145,3.675,0.707,4.945c0.848,1.271,2.399,2.12,1.694,3.533  c-0.706,1.413-1.694,3.108-2.401,3.395c-0.271,0.108-0.574,0.155-0.902,0.173l0.282,0.397l0.521,0.643l0.722,0.484l1.251,0.576  l1.609,0.406c0.569-0.5,1.056-0.848,1.748-0.848c0.989,0,2.545,0,3.816,0c1.271,0,0.707,0.142,1.695-1.271  c0.987-1.413,1.693-2.12,2.826-2.263c1.131-0.139,0.85,0.426,0.85,0.426s1.555,0,2.825,0.142c1.271,0.141,0.563,0.426,1.271,0.988  c0.707,0.565,0.707-0.706,0.565-1.413c-0.145-0.706-0.567-1.979-0.425-3.393c0.14-1.414,2.4-4.665,2.4-4.665s0.849,0,1.696-0.281  c0.848-0.283,2.261-2.401,3.392-2.827c1.132-0.424,1.84,0,3.11,0.283c1.272,0.281,1.838,0,3.392,0.424  c1.555,0.425,4.947,1.557,6.36,1.837c1.414,0.283,0.425,0.427,1.414,0.283c0.988-0.143,2.544-3.109,3.675-3.676  c1.128-0.566,4.521-3.532,5.229-3.675c0.706-0.142,0.849-0.988,1.837-0.988c0.99,0,2.545,0.563,2.545,0.563s1.131,0.987,2.12,1.838  c0.988,0.846,3.533,1.271,3.533,1.271l6.075-0.143c0,0-0.424,2.12-0.28,3.107c0.143,0.989,0.142,1.84,1.131,2.827  c0.99,0.988,2.262,2.12,2.262,2.825c0,0.707-1.13,1.414-1.837,2.263c-0.707,0.85-1.979,2.971-2.827,4.102  c-0.848,1.13-0.423,2.686-1.271,3.393c-0.851,0.707-0.988,3.11-1.133,4.382c-0.142,1.271-1.555,4.24-1.555,5.371  c0,1.13,1.271,1.694,2.12,2.544c0.846,0.848,1.553,2.686,1.694,4.239c0.143,1.556-0.848,1.838-0.988,2.545  c-0.141,0.708-1.979,2.688-1.979,2.688l-1.555,1.411c0,0-0.121,0.175-0.313,0.43l0,0l-0.094-0.125c0,0-3.96-0.354-6.081-0.354  c-2.12,0-5.654,0.145-7.563,1.206c-1.909,1.063-3.606,2.976-4.525,3.612c-0.92,0.637-0.849,1.844-0.849,2.197  s-0.425,1.417-0.778,2.194c-0.352,0.779-1.271,1.632-2.189,2.622c-0.92,0.992-1.346,1.845-1.415,2.835  c-0.071,0.992,0.563,1.771,0.776,2.479c0.212,0.709-0.068,2.197-0.068,2.197s0.707,0.142,0.425,0.638  c-0.283,0.496-0.242,2.126-0.279,2.374s-1.204,1.521-1.768,1.521c-0.259,0-0.625,0.146-0.963,0.326c0,0-0.356-0.307-0.01,0.006  c-0.026,0.054-0.673,0.337-0.843,0.592c-0.141,0.215,0.707,0.853,1.627,1.275c0.919,0.426,1.449,1.099,1.805,1.595  c0.354,0.495,0,1.7-0.459,2.305c-0.46,0.603-1.771,1.595-2.478,2.195c-0.707,0.604-1.626,1.522-1.626,2.126s0.603,2.231,1.024,2.834  c0.425,0.604,1.166,2.126,1.557,2.692c0.389,0.566,0.672,1.488,0.317,1.736c-0.354,0.248-1.346-0.071-1.696,0.281  c-0.354,0.354-0.743,2.161-0.46,2.589c0.282,0.425,0.884,0.212,1.236,0.528c0.354,0.318,1.77,0.674,1.907,1.35  c0.144,0.673,0.106,1.807-0.247,2.338c-0.353,0.53-3.325,5.351-4.458,6.059c-1.132,0.709-1.979,1.135-2.546,1.563  c-0.563,0.425-0.637,0.851-0.068,1.347c0.563,0.495,0.987,1.7,1.132,3.117c0.142,1.418-0.852,5.174-2.191,5.669  c-1.344,0.496-4.809,2.905-6.082,3.756c-1.271,0.852-3.544,2.85-4.596,3.614l-4.343,3.162l0,0c-0.317-0.172-0.291-0.219-0.889-0.4  c-0.595-0.183-1.343-0.708-1.906-1.134c-0.565-0.425-5.656-5.104-6.294-5.669c-0.638-0.566-0.919-0.64-2.053-0.709  c-1.131-0.07-4.879-2.338-5.798-2.905c-0.92-0.565-2.829-3.968-3.184-4.748c-0.354-0.778-0.851-1.559-0.851-1.559  s-1.812-2.088-2.939-2.795c-1.129-0.707-2.97-2.265-3.676-3.109c-0.707-0.849-2.264-1.696-3.251-2.827  c-0.989-1.131-2.12-3.675-3.395-5.088c-1.271-1.414-1.838-3.393-2.544-4.382c-0.707-0.989-0.989-2.262-1.838-2.827  c-0.849-0.564-0.565-0.707-1.695-0.848c-1.131-0.145-1.271-0.565-1.271-0.565s-0.144-2.402-0.144-3.251s0-0.849,0.283-1.695  c0.282-0.849,0.989-2.263,0.989-2.263l-1.272-1.979c0,0-1.131-0.565-2.544-0.565s-3.394,0.707-4.664-0.564  c-0.585-0.584-1.259-1.677-1.938-2.822"
   style="fill:#808080" />
<path
   id="_x31__5_"
   fill="#2096D5"
   stroke="#FFFFFF"
   stroke-width="0.5"
   d="M362.877,163.057c0.742-0.09,0.742-1.124,0.742-1.124  l0.988-1.131c0,0,1.695-2.827,2.545-3.533c0.848-0.707,2.688-1.556,2.688-1.556l2.543,1.271c0,0,1.131,0.987,2.119,1.694  c0.988,0.706,1.84,0,1.84,0l1.98,1.131c0,0,1.131,0.85,1.979,0.85s1.131-0.424,2.262-0.85c1.131-0.424,1.838-1.414,1.838-1.414  s1.695,0,2.969,0c1.271,0,1.131,0.144,1.836,0.707c0.707,0.565,1.98,1.979,1.84,2.97c-0.143,0.988,1.271,3.676,1.131,4.521  c-0.143,0.849-1.412,2.119-1.979,2.968c-0.563,0.851-0.424,2.264-0.424,2.264s0.424,0.849,1.27,1.694  c0.85,0.85,0.283,0.281,2.121,0.281c1.836,0,3.676,0.145,4.664,0.283c0.988,0.142,0.564,0.706,0.988,1.979  c0.066,0.193,0.104,0.414,0.123,0.653l0,0c-0.459,0.067-0.674,0.067-1.063,0.067c-0.494,0-2.016,0.035-2.189,0.035  c-0.178,0-0.459,0-0.637,0.104c-0.18,0.106-0.215,0.426-0.494,0.567c-0.283,0.142-0.852,0.212-1.063,0.46  c-0.213,0.248-0.002,0.529-0.637,0.529c-0.641,0-1.238,0.07-1.594-0.212c-0.354-0.281-0.426-0.604-0.85-1.025  c-0.426-0.426-0.777-0.78-1.098-1.276c-0.316-0.495-0.707-0.99-1.061-1.381s-1.098-1.099-1.098-1.099l-0.391-0.354  c0,0-2.297,0.071-2.758,0.106c-0.459,0.033-0.885,0.354-1.449,0.529c-0.564,0.179-1.131,1.101-1.131,1.101s-0.354,0.104,0,0.425  c0.355,0.32,0.707,0.674,0.707,1.17c0,0.495-0.068,2.056-0.529,1.877c-0.459-0.177-0.426-0.425-0.918-0.673  c-0.496-0.248-4.773-0.283-5.59-0.213c-0.813,0.071-1.52,0.604-2.475,1.063c-0.953,0.46-3.5,2.443-3.357,3.543  c0.143,1.101,0.529,1.063,0.637,1.771c0.105,0.709,0.281,0.813,0.604,1.595c0.316,0.779,0.602,0.957,0.316,1.771  c-0.258,0.739,1.563,0.808-0.896,1.104l-0.354,0.048l0,0c-0.156,0.02-0.326,0.036-0.514,0.059c-3.713,0.39-8.805,0.141-9.758-0.461  c-0.955-0.604-3.535-0.779-3.535-0.779s-0.639-1.063-1.627-1.347s-0.852,0.426-1.236,0.177c-0.391-0.248,0-0.495-0.777-0.638  c-0.775-0.145-3.146-0.214-3.568-0.035c-0.428,0.177-0.004,0.992-0.854,0.851c-0.852-0.141-1.697-0.142-1.697-0.142  s0.922,0.354,1.063,0.85s0.494,0.284,0.566,0.854c0.068,0.564-0.213,1.273-0.602,1.382c-0.391,0.104-0.742,0.674-1.096,1.134  c-0.355,0.461-2.828,2.693-3.748,3.401c-0.922,0.709-1.449,1.382-2.264,1.981l-1.781,1.042l0,0c-0.508,0.29-0.98,0.592-1.262,0.904  c-0.639,0.709-0.283,1.063-0.988,1.418c-0.707,0.354-0.92,0.425-1.414,0.425s-1.557,0.921-2.404,1.984  c-0.848,1.063-1.98,2.834-2.545,3.33c-0.566,0.496-1.627,2.268-2.191,2.977s-0.988,1.913-1.484,2.552  c-0.494,0.64-1.131,1.845-1.344,2.479c-0.008,0.018-0.021,0.198-0.037,0.487h-0.004c-0.355-0.027-0.779-0.242-1.021-0.416  c-0.775-0.567-3.252-2.835-4.455-3.758c-1.201-0.921-1.979-1.982-2.402-1.913s-13.012-0.144-14.354-0.144  c-0.322,0-0.697-0.02-1.098-0.052c0.49-0.75,1.188-1.65,1.805-2.003c0.988-0.567,2.688-2.271,3.252-2.979  c0.564-0.708,2.121-2.902,2.758-3.61c0.639-0.709-0.068-1.845-0.637-2.41c-0.566-0.566-1.838-1.63-1.979-2.338  c-0.143-0.709,0.213-2.835,0.777-3.331c0.563-0.496,1.695-0.708,2.264-0.992c0.564-0.283,2.189,0,3.322,0  c1.131,0,1.414-0.425,2.121-0.496c0.707-0.07,1.344-0.638,1.557-1.063l0.047-0.098l0.695-1.959c0-0.011,0.615-2.082,0.67-2.622  c0.07-0.709,1.414-2.339,1.979-2.69c0.564-0.354,2.264-1.771,2.758-2.409c0.496-0.638,0.92-0.779,0.92-1.134  c0-0.355,0.424-3.33,0.424-3.971c0-0.639,0.424-4.038,0.854-4.746c0.424-0.709,1.412-2.692,2.049-3.475  c0.637-0.777,3.064-2.272,5.047-3.547c1.979-1.271,3.016-1.06,3.934-1.13c0.92-0.071,1.414-0.638,2.123-0.565  c0.707,0.069,3.891,0.494,5.021,0.494c1.129,0,1.131-0.638,1.693-1.346c0.564-0.709,0.145-3.474-0.213-4.252  c-0.354-0.779-1.768-1.984-2.688-2.622c-3.846-2.668-1.941-4.224-1.252-7.258c0.705-3.109,3.814-3.958,3.814-3.958l2.402-1.624  c0,0,1.131,0.211,0.99,0.918c-0.146,0.706,0.705,1.837,0.705,1.837s0.707,0.989,1.838,0.989s1.838,1.413,1.838,1.413  s0.848,0.142,1.131,1.412l0.143,1.557c0,0,1.555,0,2.4,0c0.852,0,1.557,0.707,1.557,0.707s0.564,0,0.564,0.848  c0,0.85,0.848,1.131,0.988,1.838c0.143,0.707,1.168,2.155,1.168,2.155s0.033,2.935-0.461,3.393  c-0.494,0.459-0.988,1.201-0.988,1.201s-0.145,1.731-0.283,2.579c-0.141,0.85,0.707,0.85,0.707,0.85s0.564,0.426,1.557,1.271  c0.986,0.85,1.41,1.271,2.262,1.271c0.037,0,0.072-0.003,0.104-0.007"
   style="fill:#808080" />
<path
   id="_x31__23_"
   fill="#B81C25"
   stroke="#FFFFFF"
   stroke-width="0.5"
   d="M246.049,221.155c-1.638-0.12-4.104,0.595-4.975,0.595  c-0.99,0-2.121-1.134-4.243-1.487c-2.121-0.354-4.949,0.853-6.575,1.063c-1.627,0.212-3.748,1.771-3.748,2.903  c0,1.136,2.053,3.474,2.688,5.388c0.638,1.913-1.768,4.32-2.898,4.464c-1.131,0.143-2.97-0.425-4.809-1.274  c-1.839-0.852-3.253-1.063-4.667-0.426c-1.413,0.639-2.403,3.686-2.898,6.022c-0.493,2.339-2.546,4.465-3.96,4.604  c-1.274,0.128-3.743,0.2-4.751-0.832c0,0-2.105-1.01-2.318-1.506c-0.212-0.496,0-0.426-0.354-1.063  c-0.354-0.637-0.494-1.486-0.919-1.911c-0.425-0.428-1.133-1.275-2.052-1.771c-0.919-0.495-1.839-0.779-2.898-1.063  c-1.061-0.283-1.557-0.779-1.907-1.136c-0.354-0.354-0.85-0.426-0.989-1.063c-0.143-0.64-0.212-0.921-0.425-1.274  c-0.212-0.354-0.495-1.063-1.202-1.488s-3.465-0.425-4.81-0.425c-1.344,0-2.402-0.143-3.041-0.496  c-0.637-0.354-0.213-0.426-1.2-0.496c-0.989-0.069-2.828-0.143-3.253-0.069c-0.426,0.069-1.909,0.921-2.546,1.348  c-0.638,0.425-1.201,0.479-1.979,0.549l-0.073-0.337c0,0-0.212-9.425-0.142-9.921c0.069-0.496,0.707-1.7,1.062-2.056  c0.354-0.354,0.988-0.778,0.988-0.778l0.426-11.978c0,0,0.282-1.136,0.851-1.348c0.563-0.213,1.768-0.282,1.768-0.282  s1.697-1.488,1.84-2.271c0.143-0.78,0.636-2.621,0.707-3.4c0.07-0.777,0.07-5.029,0.07-5.029s1.768-3.047,3.252-3.688  c1.484-0.639,6.364-1.629,7.143-1.629c0.456,0,0.96-0.27,1.301-0.49c1.253-0.097,2.438-0.252,3.048-0.436  c1.412-0.424,4.238-1.838,6.502-1.838c2.261,0,5.651-0.282,7.351,0.143c1.694,0.424,2.544,0.144,3.675-0.282  c1.132-0.424,3.815-0.563,5.229-0.706c1.175-0.116-2.824-1.405,2.688-0.782c0.104,0.107,0.271,0.27,0.563,0.5  c0.706,0.564,2.401,1.694,3.107,2.401c0.707,0.707,2.264,2.401,2.264,2.401s0.424,2.97,0.706,3.676  c0.281,0.707,0.563,0.565,1.271,1.271c0.706,0.707,2.261,0.563,3.108,0.563c0.849,0,1.695,0.85,2.4,0.988  c0.707,0.143,1.132,0.707,1.696,1.414c0.564,0.706,1.695,0.989,2.402,1.695c0.706,0.707,2.686-0.565,3.675-0.565  s1.413-0.563,2.12-0.563c0.706,0,1.271,0.281,1.271,0.281s-0.424,12.438-0.563,13.286c-0.142,0.85-0.424,3.108-0.424,3.108  s-0.282,4.1-0.425,4.947C246.102,219.002,246.068,220.051,246.049,221.155L246.049,221.155z"
   style="fill:#808080" />
<path
   id="_x31__24_"
   fill="#B388B7"
   stroke="#FFFFFF"
   stroke-width="0.5"
   d="M301.143,206.956c-1.273-0.104-2.782-0.318-3.43-0.373  c-0.85-0.07-8.133-1.701-9.264-2.056c-1.132-0.355-5.8-1.204-7.85-1.204c-2.053,0-4.031,0.851-5.232,1.486  c-1.202,0.639-2.759,2.409-3.747,3.4c-0.99,0.992-1.697,3.401-1.414,4.039c0.281,0.639,0.707,0.779,0.564,1.348  c-0.144,0.565-0.637,0.708-1.909,1.417c-1.271,0.709-1.484,1.204-2.615,0.991c-1.133-0.213-4.455-1.274-6.789-0.566  c-2.333,0.71-5.371,3.263-6.502,3.827c-1.133,0.566-2.829,2.408-3.604,2.554c-0.778,0.141-1.134-0.146-2.688-0.567  c-0.186-0.051-0.392-0.082-0.609-0.099c0.019-1.104,0.054-2.152,0.116-2.544c0.144-0.851,0.426-4.946,0.426-4.946  s0.281-2.262,0.424-3.108c0.143-0.85,0.564-13.286,0.564-13.286s-0.564-0.281-1.271-0.281s-1.131,0.563-2.12,0.563  c-0.988,0-2.969,1.272-3.675,0.565c-0.707-0.707-1.838-0.989-2.403-1.696c-0.564-0.706-0.988-1.271-1.694-1.413  c-0.707-0.142-1.557-0.988-2.401-0.988c-0.851,0-2.403,0.144-3.108-0.563c-0.707-0.707-0.989-0.564-1.271-1.271  c-0.281-0.706-0.705-3.676-0.705-3.676s-1.557-1.694-2.264-2.401s-2.401-1.838-3.107-2.401c-0.707-0.563-0.707-0.706-0.707-0.706  s2.827-5.229,4.521-6.502c1.694-1.272,3.394-2.827,4.238-3.251c0.85-0.426,4.523-0.989,4.523-0.989l3.107,0.849l3.532,1.557  c0,0,0.283,0.988,1.132,2.119c0.849,1.132,2.688,2.687,3.395,2.826c0.704,0.144,3.675,1.979,4.945,1.838  c1.271-0.142,3.25-1.414,4.381-1.271c1.133,0.143,1.557,0.707,3.958,0.707c2.402,0,7.772-0.989,9.328-1.838  c1.557-0.85,5.089-3.957,6.078-4.946c0.988-0.989,1.413-1.695,2.688-1.695c1.271,0,2.12-0.424,3.393-0.987  c1.271-0.565,1.838-2.688,3.108-3.534c1.271-0.85,4.665-4.521,5.795-4.808c1.131-0.28,3.814-0.141,4.947-0.141  c1.131,0,5.229,0.141,6.077,1.271c0.85,1.132-0.426,8.197,0.988,8.197s5.795,0.143,7.068,1.13c1.27,0.99,3.391,3.958,4.381,6.078  c0.988,2.12,0.707,4.101,2.119,4.522c1.414,0.423,0.568,1.343,0.568,1.556s-0.531,1.63-0.744,2.057  c-0.213,0.426-0.85,0.991-1.557,1.063c-0.707,0.072-0.99,0.496-2.121,0.496s-2.758-0.282-3.322,0  c-0.564,0.283-1.697,0.496-2.264,0.992c-0.564,0.496-0.92,2.622-0.777,3.33c0.143,0.709,1.412,1.771,1.979,2.339  c0.566,0.565,1.273,1.701,0.637,2.409c-0.637,0.709-2.191,2.903-2.758,3.612c-0.564,0.709-2.262,2.408-3.252,2.979  C302.328,205.306,301.631,206.206,301.143,206.956L301.143,206.956z"
   style="fill:#808080" />
<path
   id="_x31__25_"
   fill="#2CA339"
   stroke="#FFFFFF"
   stroke-width="0.5"
   d="M174.85,230.298c-0.375-0.071-0.731-0.239-2.036-0.239  c-1.838,0-8.766,0.282-10.459,0.282c-1.695,0-5.091,0-6.222,0s-0.848-0.563-2.12-0.707c-1.271-0.142-2.262,0.145-3.813,0.145  c-1.553,0-3.25-0.851-4.522-0.851c-1.271,0-2.12,0-3.393,0c-1.271,0-1.556,0.425-2.262,0c-0.707-0.425-0.707-0.563-1.557-0.563  c-0.849,0-0.988,1.555-1.694,2.825c-0.707,1.271,0.424,1.979-0.426,3.395c-0.849,1.413-0.142,2.263-0.707,3.533  c-0.563,1.271-1.411,1.838-1.411,3.532c0,1.695-0.564,1.979,0.142,3.25c0.707,1.271,0.988,2.264,2.12,3.253  c1.131,0.987,1.702,1.093,2.764,1.802c1.063,0.708,2.546,0.992,2.758,1.842c0.212,0.854,0.283,2.622,0.283,2.622  s-0.637,1.135-1.626,1.135c-0.99,0-5.233,0.07-6.152-0.143c-0.92-0.213-1.415-0.638-1.627-1.063  c-0.212-0.426-0.987-1.56-1.626-1.698c-0.637-0.144-2.263,0.142-2.97,0.142s-2.121,1.983-2.616,2.905  c-0.495,0.921-2.121,3.543-2.758,4.394c-0.637,0.854-1.485,1.771-1.839,1.913c-0.354,0.145-0.989-0.068-1.202,0.284  c-0.212,0.354,0.354,1.275,0.354,1.275s0.705,1.559,0.142,1.559c-0.565,0-2.191,0.143-2.758,0c-0.565-0.142-1.063-0.638-1.063-0.638  s0-0.854-0.424-0.354c-0.425,0.496-1.344,1.844-1.909,2.271c-0.564,0.425-0.354,0.851-1.344,0.495  c-0.99-0.354-1.697-0.354-2.476-1.135c-0.777-0.777-1.201-1.348-1.484-1.843s-0.354-0.779-0.283-1.275  c0.071-0.494,0.071-0.707,0.283-1.273c0.212-0.565-0.354-1.347-0.354-1.347s-0.639-0.639-0.99-0.853  c-0.354-0.213-0.354-0.564-1.063-0.564s-1.062-0.07-1.062,0.494c0,0.566-0.354,1.136-0.706,1.063  c-0.354-0.07-0.145,0.566-0.778-0.283c-0.636-0.852-0.775-0.852-1.062-1.204c-0.281-0.354-0.494-1.205-0.707-2.41  c-0.212-1.203-0.919-1.981-1.271-3.115c-0.354-1.136-1.202-2.128-1.626-2.692c-0.425-0.566-0.778-0.922-1.271-1.418  c-0.495-0.496-0.495-2.409-0.144-2.978c0.354-0.565,1.698-1.63,2.334-1.982c0.639-0.354,5.656-2.339,5.656-2.339  s1.839-0.779,2.688-1.274c0.852-0.496,2.192-0.992,2.547-1.417c0.354-0.427,0.564-0.567,0.564-1.135  c0-0.566,0.564-0.921,0.144-1.417c-0.427-0.496-1.484,0.426-0.922-0.709c0.566-1.135,0.215-2.196,0.64-2.766  c0.425-0.565,2.121-2.055,3.04-2.194c0.92-0.145,2.051-0.07,2.896-0.213c0.851-0.145,1.559-0.924,1.98-1.274  c0.424-0.354,0.771-1.348,0.633-2.623c-0.143-1.275-0.07-3.188-0.85-3.969c-0.776-0.778-1.979-2.551-3.253-3.117  c-1.271-0.567-1.558-1.135-2.972-1.488c-0.997-0.25-1.888-0.815-2.647-1.229c1.648-1.352,3.797-2.611,4.348-3.164  c0.919-0.921,3.322-2.766,4.597-3.613c1.272-0.851,4.737-3.261,6.081-3.757c1.346-0.494,2.333-4.251,2.192-5.669  c-0.145-1.417-0.566-2.622-1.133-3.116c-0.564-0.496-0.494-0.923,0.068-1.348c0.566-0.427,1.414-0.853,2.548-1.562  c1.132-0.708,4.104-5.525,4.458-6.06c0.354-0.531,0.39-1.665,0.246-2.339c-0.142-0.673-1.556-1.026-1.908-1.348  c-0.354-0.317-0.954-0.104-1.236-0.53c-0.282-0.427,0.104-2.23,0.46-2.586c0.354-0.354,1.344-0.035,1.696-0.283  c0.354-0.248,0.068-1.17-0.317-1.735c-0.39-0.565-1.132-2.091-1.557-2.692c-0.424-0.603-1.024-2.229-1.024-2.834  c0-0.604,0.92-1.521,1.626-2.126c0.708-0.604,2.018-1.596,2.478-2.196c0.46-0.604,0.813-1.809,0.459-2.304  c-0.354-0.495-0.885-1.17-1.805-1.596c-0.919-0.425-1.768-1.063-1.626-1.273c0.144-0.213,1.237-0.922,1.805-0.922  c0.564,0,1.73-1.273,1.769-1.521s-0.003-1.878,0.278-2.374c0.282-0.496-0.424-0.639-0.424-0.639s0.281-1.487,0.068-2.196  c-0.212-0.709-0.848-1.488-0.775-2.479c0.068-0.992,0.493-1.844,1.413-2.836c0.92-0.99,1.84-1.843,2.191-2.621  c0.354-0.777,0.778-1.844,0.778-2.194c0-0.355-0.071-1.563,0.848-2.197s2.616-2.551,4.524-3.614  c1.909-1.063,5.443-1.204,7.564-1.204c2.122,0,6.081,0.354,6.081,0.354s0.778,0.99,0.99,1.7c0.212,0.709,0.425,2.339,0.637,3.188  c0.212,0.853,0.777,2.271,1.346,2.906c0.563,0.638,1.979,0.564,2.688,0.564s1.132-0.852,1.556-0.921  c0.426-0.069,2.616,0,3.537-0.069c0.92-0.071,2.051,0.069,2.688,0.354c0.637,0.284,1.768,1.135,2.334,1.771  c0.564,0.638,0.493,2.903,0.776,4.181c0.281,1.276,0.637,0.852,1.201,1.205s1.201,0.071,1.84,0.283  c0.636,0.213,1.344,0.281,3.747,1.418c2.402,1.134,2.402,2.479,3.466,3.685c1.062,1.204,1.062,3.475,1.343,4.606  c0.283,1.134,0.85,3.472,1.627,4.394c0.777,0.921,2.052,1.843,2.546,2.27c0.495,0.425,2.478,0.282,3.11,0.282  c0.638,0,0.92,1.135,0.85,1.631c-0.07,0.495,0.851,3.612,1.484,4.32c0.637,0.709,0,8.718,0,8.718s-0.919,0.778-1.696,0.778  s-5.657,0.992-7.143,1.63c-1.484,0.64-3.253,3.688-3.253,3.688s0,4.251-0.071,5.029c-0.069,0.779-0.564,2.622-0.707,3.4  c-0.144,0.779-1.838,2.271-1.838,2.271s-1.202,0.068-1.77,0.282c-0.564,0.213-0.85,1.348-0.85,1.348l-0.425,11.977  c0,0-0.637,0.426-0.988,0.778c-0.354,0.354-0.99,1.561-1.062,2.057s0.141,9.921,0.141,9.921S175.102,230.088,174.85,230.298  L174.85,230.298z"
   style="fill:#808080" />
</svg>